<?xml version="1.0" encoding="UTF-8"?>
<svg version="1.1" viewBox="0 0 2048 599" width="478" height="140" xmlns="http://www.w3.org/2000/svg">
<path transform="translate(583,4)" d="m0 0h11l6 4 4 6 1 8-2 8-4 5-13 4-56 11-23 4-3 10-11 27-15 39-12 30-22 56-51 129-12 31 1 4 33 33 8 7 8 8 8 11 5 11 1 4v19l-4 12-8 12-9 8-10 5 11 7 7 9 4 10v13l-4 10-7 9-10 6-8 2h-11l-11-3-8-6-7-11-2-6v-15l4-10 10-11h-280l9 9 5 10 1 4v12l-4 11-9 10-8 4-8 2h-11l-10-3-6-4-7-8-4-8-1-3v-14l4-10 8-10 3-3h-39l-7-3-5-6-2-4v-8l3-7 7-6 4-1 374-1 7-4 4-8-3-8-9-10-46-46-2-1-294-23-14-2-8-7-3-8-6-42-15-118-3-31v-10l3-6 7-6 34-2 1 1 3 16 4 8 6 7 10 6 5 2 6 1h8l10-1 1 5 2 12 5 12 7 11 8 8 13 8 12 4 6 1h17l15-4 11-6 9-7 9-12 5-11 3-15v-13l-3-13-7-14-7-8v-2l211-5 14-1 3-3 15-38 22-56 6-12 7-4 28-6 60-11zm-503 517-9 3-7 8-2 4-1 9 4 10 7 6 7 3h9l8-4 6-7 2-8-1-10-4-7-5-4-9-3zm320 0-8 2-6 4-4 6-1 3v14l4 6 7 6 6 2h8l9-4 6-8 2-6v-8l-5-10-9-6z" fill="#3382F9"/>
<path transform="translate(1201,167)" d="m0 0h30l4 4 16 32 10 19 4 7v2l2-1 11-23 18-35 3-4h32v135h-28l-1-85h-2l-9 19-10 18-11 20-3 6h-2l-12-21-17-32-6-13-2-1 1 8v80l-1 1h-27l-1-1v-130z" fill="#475149"/>
<path transform="translate(604,165)" d="m0 0h17l14 3 10 4 11 8 2 2-1 5-17 17-11-8-8-3-4-1h-15l-8 4-3 9 2 7 5 4 11 3 22 4 13 5 9 7 6 10 3 10v11l-3 12-6 10-5 6-14 8-12 3-7 1h-16l-16-4-14-7-11-9 1-5 16-16 5 2 6 5 10 5 9 2h12l8-3 3-1 2-5 1-2v-9l-3-6-7-3-27-4-14-5-8-6-6-7-4-10-1-5v-13l3-10 6-9 9-8 10-5z" fill="#454F47"/>
<path transform="translate(1088,199)" d="m0 0h14l10 3 9 6 7 10 4 10 2 11v27l-4 16-5 9-7 8-10 5-9 2h-8l-10-3-9-7-5-7-1 53h-29v-140l1-1h27l1 1 1 14 9-11 9-5zm-8 23-7 3-5 4-2 6v35l3 7 9 5 9 1 8-3 6-5 3-9v-29l-5-10-6-4-4-1z" fill="#475049"/>
<path transform="translate(727,159)" d="m0 0h28l1 1v57l8-10 5-4 9-4h14l11 4 5 4 6 10 3 10v76h-28l-1-63-2-11-4-5-2-1h-11l-8 4-3 1-1 3-1 71-1 1h-28l-1-3z" fill="#464F47"/>
<path transform="translate(1430,199)" d="m0 0h21l12 3 10 6 6 7 4 11 1 7v48h8l1 1v21h-22l-5-3-5-6-1-7-14 14-9 4-4 1h-13l-10-3-8-6-6-10-2-11 2-11 6-10 9-6 13-4 28-2 3-1-2-11-4-7-6-2h-9l-11 4-6 7-5-2-9-9-3-2 1-5 7-7 10-6zm7 61-9 3-4 5v10l3 5 5 3h10l9-4 4-6v-14l-2-2z" fill="#475049"/>
<path transform="translate(1845,199)" d="m0 0h17l9 2 10 5 10 9 7 14 3 14v16l-3 1h-64l4 12 4 6 8 4h15l8-3 9-8 5 5 10 11-2 4-8 7-12 5-15 3h-12l-13-3-8-4-10-9-7-11-4-13-1-6v-15l3-15 6-12 8-9 9-6 9-3zm3 21-8 5-4 7-1 10 2 1h31l4-2-2-10-5-8-6-3z" fill="#48514A"/>
<path transform="translate(919,199)" d="m0 0h16l12 3 10 6 8 8 7 14 3 15v15l-3 14-7 14-6 7-11 7-11 3-6 1h-10l-10-2-9-4-8-6-8-10-5-12-2-10v-20l3-12 7-14 5-6 11-7 8-3zm4 22-7 3-5 6-2 6-1 25 2 11 3 6 5 4 3 1h11l6-3 5-6 2-8v-29l-3-8-4-5-8-3z" fill="#465048"/>
<path transform="translate(158,142)" d="m0 0h17l13 5 9 7 7 8 5 11 1 5v16l-4 12-6 9-9 8-11 5-9 2h-9l-12-3-10-5-9-9-5-8-4-13v-11l3-12 6-10 6-7 9-6z" fill="#0D68D9"/>
<path transform="translate(1581,199)" d="m0 0h20l12 3 11 6 5 4 1 5-14 14-16-8-4-1h-11l-5 3-2 3 1 6 5 4 27 5 12 6 7 8 3 7v15l-6 12-9 8-9 4-14 3h-14l-12-3-14-7-7-6-1-3 9-10 7-6 11 8 9 3 11 1 7-2 3-1 1-9-4-4-10-2-14-2-11-4-9-6-6-10-1-3v-15l4-10 7-8 12-6z" fill="#464F48"/>
<path transform="translate(1704,173)" d="m0 0h14l11 1v27h13l8 1v20l-1 1h-20v58h19v22h-25l-10-3-7-6-4-8-1-3-1-21v-39l-13 1-1-1v-21l1-1 14-2 1-5 1-20z" fill="#48514A"/>
<path transform="translate(1964,201)" d="m0 0h25l4 2-1 18 3-3 5-8 7-6 4-2 13-1 1 1v25l-16 2-9 2-6 5-1 55v11l-1 1h-28z" fill="#4C564E"/>
<path transform="translate(138,56)" d="m0 0h14l10 4 5 4 6 9 2 5v15l-5 10-9 8-7 3-11 1-9-2-8-5-6-7-4-10v-12l4-10 6-7z" fill="#0F69D9"/>
<path transform="translate(86,128)" d="m0 0 10 1 7 4 5 6 2 5v10l-4 8-6 5-8 3h-7l-9-4-5-6-3-8 1-10 6-9 8-4z" fill="#116BDA"/>
<path transform="translate(1540,403)" d="m0 0 8 1 7 1 5-2h6l4 2h6l5-2 8 1 5 5 1 14v16l-1 1h-6l-1-2-1-27-2-3-7 1-2 1-1 6v23l-1 1h-6l-1-7-1-22-2-3-7 1-2 2-1 28-1 1h-6l-1-1-1-31-4-3z" fill="#9CC2FC"/>
<path transform="translate(1030,403)" d="m0 0 8 1 7 1 5-2h6l4 2h6l5-2 9 1 4 5 1 6v25h-7l-1-7-1-25h-7l-4 3-1 28-1 1h-6l-1-11v-15l-2-5-1-1-7 1-2 2-1 29h-7l-1-3v-27z" fill="#92BCFB"/>
<path transform="translate(699,402)" d="m0 0 6 1 6 5 7 16h3l3-6v-8l-4-8 6 1 6 5 5 11 3 7 3-4 8-18 3-2-1 9-11 26-2 4-3-1-6-15-1-5h-2l-2 5-7 16-3-1-8-20-6-12-3-4z" fill="#4789DD"/>
<path transform="translate(941,389)" d="m0 0 9 1 2 2 1 5v43h-9l-3 1h-10l-5-3-4-8-1-3v-10l4-9 8-5h8l4 1v-7l-1-3-4-4zm-3 17-5 2-3 4-1 3v15l3 6 2 1h11l1-26-3-4z" fill="#186ACF"/>
<path transform="translate(550,402)" d="m0 0 6 1 5 4 8 16 3 3 4-10-1-6-4-7 7 1 5 4 8 17h2l7-18 3-4h2l-1 8-13 30h-3l-6-17-2-3-5 8-4 10-4 1-11-28-6-8z" fill="#3380E3"/>
<path transform="translate(624,402)" d="m0 0 6 1 5 4 6 12 2 5v3h3l3-9 1-1v-6l-6-8h6l6 4 10 20 8-20 3-4 3 1-7 19-7 16h-4l-8-18v-2h-2l-1 6-4 8-2 6-2 1-4-4-7-19-5-10-3-3z" fill="#3883E7"/>
<path transform="translate(1206,390)" d="m0 0h11l3 3v26l5-5 5-6 8-5h3l-1 3-8 7-4 6 1 5 7 9 8 6v2h-9l-8-7-6-8-1 14h-7l-1-1-1-46-5-1z" fill="#5496F9"/>
<path transform="translate(1499,403)" d="m0 0h8l7 4 4 5 2 5v10l-3 7-5 5-4 2h-12l-6-4-4-8-1-8 3-10 5-5zm1 4-5 4-2 13 2 9 4 4h7l5-5 1-2v-14l-3-6-4-3z" fill="#317FE1"/>
<path transform="translate(110,17)" d="m0 0h9l6 4 3 4v11l-5 6-5 2-9-1-6-5-2-5v-6l4-6z" fill="#126BDB"/>
<path transform="translate(877,403)" d="m0 0h7l6 3 6 7 2 6-1 11-4 6-4 4-11 2-8-3-5-6-2-6v-9l4-8 5-5zm0 4-5 6-1 3v13l3 6 3 2h7l4-4 2-5v-11l-4-8-2-2z" fill="#468CE6"/>
<path transform="translate(1120,403)" d="m0 0h8l6 3 4 6 1 10v17l-1 1-22 1-4-2-2-4v-10l6-4 3-1 11-1v-7l-2-4-6-1-5 3-6 4-1-3 5-6zm1 20-4 3v7l4 4h8l2-1v-13z" fill="#3584FA"/>
<path transform="translate(990,403)" d="m0 0h8l7 4 4 8 1 8h-24l2 9 4 4h9l5-5 2 1-3 6-5 3h-13l-5-5-4-7-1-9 3-9 8-7zm1 4-4 4-2 5v3l3 1h10l4-2-3-9-2-2z" fill="#2074DF"/>
<path transform="translate(1278,403)" d="m0 0h8l6 4 4 7 1 9h-24l2 9 4 4 5 1 7-3 4-3-2 6-6 4h-12l-7-6-3-6v-13l5-8 5-4zm0 4-5 6-1 6 3 1h8l6-2-3-9-2-2z" fill="#2074E1"/>
<path transform="translate(1444,403)" d="m0 0h11l5 3 2 5v5h-2l-6-8-5-1-5 2-4 6v15l3 5 2 1h10l7-5-1 5-4 4-3 1h-13l-7-6-3-8v-10l4-8 6-5z" fill="#1A70DE"/>
<path transform="translate(823,403)" d="m0 0h11l5 4 2 5v5l-4-4-4-5-5-1-5 2-4 5-1 5v8l4 8 2 1h10l7-5-1 5-5 4-9 2-8-2-6-7-2-4v-13l3-6 7-6z" fill="#2174E0"/>
<path transform="translate(1326,393)" d="m0 0h4l1 10 9 1v3h-9v29l9 1 2 2-7 2-9-1-2-3-1-5v-25h-5v-3l5-2 1-7z" fill="#609CF6"/>
<path transform="translate(80,69)" d="m0 0 6 1 7 6v8l-4 5-4 2-8-1-5-6-1-6 3-5 3-3z" fill="#1970DF"/>
<path transform="translate(1161,403)" d="m0 0 11 2 7-1h8l2 2-1 4h-15v30h-7l-2-33z" fill="#418BF8"/>
<path transform="translate(79,533)" d="m0 0h7l6 5 1 2v6l-4 5-2 1h-8l-5-4-1-2v-7l4-5z" fill="#4E93FA"/>
<path transform="translate(397,533)" d="m0 0h8l6 5v9l-4 4-2 1h-8l-4-4-1-2v-7l3-5z" fill="#3A87FA"/>
<path transform="translate(947,390)" d="m0 0 4 1 2 6v43h-7z" fill="#0B66D6"/>
<path transform="translate(603,403)" d="m0 0h2l-1 8-13 30h-3l-6-17-1-4h2l2-6 2 2 4 9h2l7-18z" fill="#4F93F8"/>
<path transform="translate(1511,406)" d="m0 0 4 2 4 6 1 3v10l-3 7-5 5-4 2h-12l-6-4-3-5 1-3 1-1 2-10 3-3v9l2 11 3 1h7l5-4 2 2 2-3 1-7v-9z" fill="#70A7FA"/>
<path transform="translate(624,402)" d="m0 0 6 1 5 4 6 12 3 8 3 3-1 8-3 2-4-4-7-19-5-10-3-3z" fill="#1269D4"/>
<path transform="translate(1360,403)" d="m0 0 9 1 3 2 1 4v30h-7l-1-33-4-2z" fill="#3F89EE"/>
<path transform="translate(1073,404)" d="m0 0 9 2 2 3 1 6v25h-7l-1-7v-25z" fill="#5D90CE"/>
<path transform="translate(990,403)" d="m0 0h8l7 4 4 8 1 8h-24v6h-1v-7l1-3h12l3-1-3-9-1-1h-8l-2 5-1-3v-5z" fill="#4083D7"/>
<path transform="translate(1278,403)" d="m0 0h8l6 4 4 7 1 9h-24v-4h10l5-1-3-9-5-2-1-2-4-1z" fill="#639DE9"/>
<path transform="translate(1206,390)" d="m0 0h9l2 26v18l-1 6-4-1-1-46-5-1z" fill="#2368B8"/>
<path transform="translate(1037,406)" d="m0 0 3 1 2 6 1 8v19h-7l-1-3 1-30z" fill="#186FE0"/>
<path transform="translate(1058,407)" d="m0 0h9l-2 4-1 28-1 1h-5z" fill="#478DE7"/>
<path transform="translate(1568,407)" d="m0 0h8l-2 9v23l-1 1h-5z" fill="#86B5FB"/>
<path transform="translate(1238,403)" d="m0 0h3l-1 3-8 7-4 6 1 5 7 9 5 5v2l-5-1-13-13-1-7 3-5 5-6z" fill="#2677DD"/>
<path transform="translate(753,402)" d="m0 0h1l-1 9-11 26-2 3-1-11-11-22 1-2 4 5 7 16 3-4 8-18z" fill="#448DF8"/>
<path transform="translate(1547,406)" d="m0 0 3 1 1 1 1 15v17h-6v-25z" fill="#1B71E4"/>
<path transform="translate(1167,407)" d="m0 0 4 5 1 4v21l-1 3h-5v-29z" fill="#0B67D8"/>
<path transform="translate(1587,406)" d="m0 0h5l2 3 1 14v16l-5 1-2-32z" fill="#478DE7"/>
<path transform="translate(720,402)" d="m0 0 6 1 5 7 8 18 1 1v12l-3-1-4-9-1-9-8-15-4-4z" fill="#2D7BDE"/>
<path transform="translate(699,402)" d="m0 0 6 1 6 5 4 8 1 9-4 4-5-12-7-12z" fill="#2D7CE3"/>
<path transform="translate(941,389)" d="m0 0 6 1v48l-6 3h-10v-1l10-2 4-1v-26l-2-3-9-1v-2l-3-1 2-1h8l4 1v-7l-1-3-4-4z" fill="#5195FA"/>
<path transform="translate(886,406)" d="m0 0 5 1 3 5 1 3v12l-2 6-5 5-4 1 5-11v-15l-1-4-2-1z" fill="#327FE1"/>
<path transform="translate(1324,395)" d="m0 0h3l-1 12 1 10v18h-3l-1-3v-25h-5v-3l5-2z" fill="#0B67D8"/>
<path transform="translate(950,391)" d="m0 0 2 1 1 5v43l-4-1z" fill="#478FFA"/>
<path transform="translate(812,423)" d="m0 0h1l1 11 4 1v3l2-1-1-5 5 4h10l7-5-1 5-5 4-9 2-8-2-6-7-2-4v-5z" fill="#4C8EEB"/>
<path transform="translate(893,410)" d="m0 0 3 3 2 6-1 11-4 6-4 4-11 2-5-2-1-8 5 4h9l-1 2 5-2 3-4 1-5v-12z" fill="#5A9AFA"/>
<path transform="translate(1508,406)" d="m0 0 4 1 5 8v9l-2 10-4 1v-19z" fill="#2879E0"/>
<path transform="translate(1511,406)" d="m0 0 4 2 4 6 1 3v10l-3 7-6 6h-8l1-2 3-1 4-5 2 2 2-3 1-7v-9z" fill="#5497F9"/>
<path transform="translate(1110,425)" d="m0 0h7l2 10 7 2v2l-9 1-6-3-1-2z" fill="#2F7ADD"/>
<path transform="translate(877,403)" d="m0 0h7l5 2-3 1v2l3 1 1 8-6-9h-7l-4 5-1 3v16h-2l-1-5v-9l3-11v-2z" fill="#80B1FB"/>
<path transform="translate(571,403)" d="m0 0 7 1 5 4 2 4-1 6-1 2h-4l-5-12z" fill="#3D87E8"/>
<path transform="translate(1439,430)" d="m0 0 4 5 2 1h10l7-5-1 5-4 4-3 1h-13l-7-6 1-2 4 4z" fill="#538BDA"/>
<path transform="translate(990,403)" d="m0 0h8l7 4 4 8 1 8h-5v-10l-2-5-8-1-6 1-2 5-1-3v-5z" fill="#B2D0FC"/>
<path transform="translate(1582,404)" d="m0 0h7l2 2-3 1 1 1 1 17v15h-2l-1-2-1-27-2-3-6-1z" fill="#7DAFFB"/>
<path transform="translate(677,403)" d="m0 0 3 1-7 19-3 7-3-3 3-10 4-10z" fill="#95BEF6"/>
<path transform="translate(603,403)" d="m0 0h2l-1 8-7 16h-5l8-20z" fill="#9BC0F4"/>
<path transform="translate(929,405)" d="m0 0h5l-1 4-3 6v15l1 4h-2l-3-13v-5h2l-1-2h-3v-4z" fill="#5290E5"/>
<path transform="translate(1568,407)" d="m0 0h2l1 2 1 31h-4z" fill="#0B67D8"/>
<path transform="translate(1030,403)" d="m0 0 8 1 7 1 7-2 3 4-1 2-1-1-7 1-2 2-1 10h-1l-1-13-4-1-2 3z" fill="#A7C9FC"/>
<path transform="translate(723,406)" d="m0 0 4 4 7 15-1 3-2-3-1-5h-2l-2 5-2 3-4-2 4-8v-8z" fill="#94BCF7"/>
<path transform="translate(1238,403)" d="m0 0h3l-1 3-8 7-4 6-2 4-3-5 2-4 5-6z" fill="#629EF2"/>
<path transform="translate(983,408)" d="m0 0v3l-1 2v16l4 10-3-1-5-9-1-9 3-9z" fill="#5E9DFA"/>
<path transform="translate(1120,403)" d="m0 0h8l5 2v1l-11 1-5 3-6 4-1-3 5-6z" fill="#78ACFA"/>
<path transform="translate(1161,403)" d="m0 0 11 2 7-1h8l2 2-1 4-9-2-15-1z" fill="#F4F8FD"/>
<path transform="translate(699,402)" d="m0 0 6 1 6 5-1 2-4-3 3 8 3 7v6l-2-3-6-14-5-7z" fill="#8AB6F3"/>
<path transform="translate(1082,407)" d="m0 0 2 2 1 6v25h-2l-1-14z" fill="#91BBFB"/>
<path transform="translate(1435,409)" d="m0 0 1 2-1 13 1 10-3-1-2-6v-10z" fill="#3A86FA"/>
<path transform="translate(1499,403)" d="m0 0h8l4 2-3 1 2 5-5-3h-9-2l-3 3-2-1 5-5z" fill="#7BAEFA"/>
<path transform="translate(828,404)" d="m0 0h8l4 5 1 8-4-4-4-5-5-1-6 2v-3z" fill="#D8E6FA"/>
<path transform="translate(1041,413)" d="m0 0h1l1 8v19h-3v-20z" fill="#3583FA"/>
<path transform="translate(631,412)" d="m0 0 3 4 5 11 3 6 3 3-1 4-4-2-8-21z" fill="#67A2FB"/>
<path transform="translate(1446,405)" d="m0 0h13l3 6v5h-2l-6-8-5-1-6 1v-2z" fill="#DDE8F9"/>
<path transform="translate(1540,403)" d="m0 0 8 1-1 11-1 24h-1l-1-31-4-3z" fill="#F7FAFD"/>
<path transform="translate(108,523)" d="m0 0 4 4 3 8v14l-2 4-2-21-3-5z" fill="#106ADC"/>
<path transform="translate(872,432)" d="m0 0 5 4h9v3 2l-8 1-5-2z" fill="#83B3FB"/>
<path transform="translate(1130,419)" d="m0 0 1 2-1 2-9 1-4 2-6-1 3-3 5-2z" fill="#CBD7E5"/>
<path transform="translate(1267,412)" d="m0 0 2 1-1 3v10l3 9 4 4h-3l-5-6-2-4v-13z" fill="#5496FA"/>
<path transform="translate(1360,403)" d="m0 0 9 1-2 1v35h-1l-1-33-4-2z" fill="#84B4FB"/>
<path transform="translate(921,417)" d="m0 0h2l1 3-1 3v3h2l2 8 4 6-4-1-4-6-2-6z" fill="#5295FA"/>
<path transform="translate(1006,431)" d="m0 0 2 1-3 6-5 3h-5l-5-5h11z" fill="#E2E4E6"/>
<path transform="translate(715,419)" d="m0 0 2 2 3 6h-3v8l-2 3-3-9 3-5z" fill="#4F94FA"/>
<path transform="translate(840,431)" d="m0 0 1 3-4 5-4 2-9 1-4-2 10-1-2-2 8-2z" fill="#F2F5F9"/>
<path transform="translate(651,413)" d="m0 0h1l1 6-4 10-2 2-1-3-2-1h2l3-9z" fill="#C5DAF6"/>
<path transform="translate(1071,403)" d="m0 0 9 1 1 2-7-1 4 4-2 1v-2h-14l-1-2z" fill="#FEFEFE"/>
<path transform="translate(1461,431)" d="m0 0 1 4-5 5-3 1h-13v-1l11-2 8-6z" fill="#F6F8FA"/>
<path transform="translate(672,412)" d="m0 0 1 4 2 2-5 12-3-3 3-10z" fill="#B1CDF5"/>
<path transform="translate(933,403)" d="m0 0h8l5 2v6l-3-3-9-1v-2l-3-1z" fill="#FEFEFE"/>
<path transform="translate(780,433)" d="m0 0 4 1v6l-1 1h-5l-2-4z" fill="#7595B8"/>
<path transform="translate(1294,431)" d="m0 0 1 2-3 5-5 3h-7l2-2-3-2 9-1z" fill="#DCE4ED"/>
<path transform="translate(599,410)" d="m0 0 1 3-1 10-2 4h-5z" fill="#8AB6F5"/>
<path transform="translate(1128,406)" d="m0 0 5 1 1 11-2 5h-2v-11z" fill="#1A71DE"/>
<path transform="translate(65,555)" d="m0 0 11 7 3 1h12l-2 2h-14l-9-6z" fill="#FEFEFE"/>
<path transform="translate(577,415)" d="m0 0 2 3 1 3-5 8h-3l1-5z" fill="#C4D7F2"/>
<path transform="translate(753,402)" d="m0 0h1l-1 9-3 7-3-4 2-6z" fill="#A0C2F0"/>
<path transform="translate(1323,402)" d="m0 0h1v30h-1v-25h-5v-3z" fill="#B5D2FC"/>
<path transform="translate(1402,433)" d="m0 0 4 1v6l-5 1-2-1 1-5z" fill="#8DA8C6"/>
<path transform="translate(945,419)" d="m0 0h1v20l-5 2h-10v-1l10-2 4-1z" fill="#FEFEFE"/>
<path transform="translate(990,403)" d="m0 0h8v2h-5v2l-4 1-2 5-1-3v-5z" fill="#77ACFB"/>
<path transform="translate(1368,391)" d="m0 0 3 1 1 6-5 1-3-3 2-4z" fill="#90ACCC"/>
<path transform="translate(571,427)" d="m0 0 1 2h2l-1 6-3 5h-3l3-6-1-6z" fill="#5997F1"/>
<path transform="translate(728,405)" d="m0 0 5 5 6 14-2 1-8-16z" fill="#5497FA"/>
<path transform="translate(1110,425)" d="m0 0h7v4l-7 4z" fill="#3B6EAB"/>
<path transform="translate(986,419)" d="m0 0 17 3v1h-17v6h-1v-7z" fill="#FEFEFE"/>
<path transform="translate(586,427)" d="m0 0 2 2 2-1 1 3v7l-1 2-3-1z" fill="#0F69DB"/>
<path transform="translate(1073,404)" d="m0 0 9 2v9h-1v-6h-2v10h-1l-1-11z" fill="#2176EB"/>
<path transform="translate(1180,404)" d="m0 0h7l2 2-1 4-6-1-1-2z" fill="#82B2FB"/>
<path transform="translate(1444,403)" d="m0 0h11l2 2-4 1h-10l-1 2-2-3z" fill="#5295FA"/>
<path transform="translate(624,402)" d="m0 0 6 1 5 4 2 5-3-1-2-4h-5l-3-3z" fill="#71A4EF"/>
<path transform="translate(550,402)" d="m0 0h3l4 7 4 8v2h-2l-5-10-4-5z" fill="#84B4FB"/>
<path transform="translate(1291,407)" d="m0 0 3 3 3 8v5h-5l2-1-1-9z" fill="#FEFEFE"/>
<path transform="translate(417,513)" d="m0 0 5 2 6 5 4 6-1 2-11-12z" fill="#FEFEFE"/>
<path transform="translate(1279,404)" d="m0 0h6v1h-5v2l-5 4-2 2 1-6-2-1z" fill="#3E89FA"/>
<path transform="translate(1581,403)" d="m0 0h5v3l-6 1-4 2v-2l-5 1v-2z" fill="#F2F6FD"/>
<path transform="translate(817,414)" d="m0 0h1v13l1 5h-2l-2-9v-7z" fill="#588FDD"/>
<path transform="translate(1238,403)" d="m0 0h3l-1 3-8 7-1-2 3-6z" fill="#B3D0FC"/>
<path transform="translate(706,407)" d="m0 0 4 2 1 1v8l-4-4z" fill="#245FA4"/>
<path transform="translate(1129,436)" d="m0 0 2 1-3 3-3 1h-9l-4-2 1-2 4 2h9v-2z" fill="#FEFEFE"/>
<path transform="translate(1115,429)" d="m0 0h2v3h-2v6l-4-1-1-4z" fill="#599AFA"/>
<path transform="translate(748,413)" d="m0 0h1v7l-3 3h-2l1-6z" fill="#2475DC"/>
<path transform="translate(1273,419)" d="m0 0h2v2l14 1v1h-16z" fill="#FEFEFE"/>
<path transform="translate(141,149)" d="m0 0 2 1-11 11-2-1 7-8z" fill="#609DF2"/>
<path transform="translate(812,423)" d="m0 0h1l2 13-3-3-2-4v-5z" fill="#6CA5FB"/>
<path transform="translate(872,432)" d="m0 0 5 4h9l-3 3-9-1-2-3z" fill="#FEFEFE"/>
<path transform="translate(900,206)" d="m0 0m-2 1 2 1-11 11v-3l5-6z" fill="#A3A7A3"/>
<path transform="translate(747,421)" d="m0 0 1 2-4 9-1-4 1-2h-2l2-4z" fill="#B7D3FC"/>
<path transform="translate(1288,418)" d="m0 0 1 2-1 2-13-1v-1z" fill="#6588B3"/>
<path transform="translate(629,406)" d="m0 0 4 1 1 5-5-1-1-4z" fill="#357DDA"/>
<path transform="translate(1030,403)" d="m0 0 8 1-2 6-5-5z" fill="#F6F9FD"/>
</svg>
